<svg id="SvgjsSvg1015" width="288" height="288" xmlns="http://www.w3.org/2000/svg" version="1.1" xmlns:xlink="http://www.w3.org/1999/xlink" xmlns:svgjs="http://svgjs.com/svgjs"><defs id="SvgjsDefs1016"></defs><g id="SvgjsG1017"><svg xmlns="http://www.w3.org/2000/svg" data-name="Layer 1" viewBox="0 0 32 32" width="288" height="288"><rect width="10" height="2" x="20" y="7" fill="#d9e0e4" class="color515151 svgShape"></rect><rect width="10" height="2" x="20" y="21" fill="#d9e0e4" class="color515151 svgShape"></rect><rect width="10" height="2" x="20" y="27" fill="#d9e0e4" class="color515151 svgShape"></rect><polygon fill="#d9e0e4" points="9 2 7 2 7 7 2 7 2 9 7 9 7 14 9 14 9 9 14 9 14 7 9 7 9 2" class="color515151 svgShape"></polygon><polygon fill="#d9e0e4" points="12.34 19.84 8.47 23.71 4.63 19.87 3.37 21.13 7.21 24.97 3.34 28.84 4.64 30.14 8.51 26.27 12.37 30.13 13.63 28.87 9.77 25.02 13.64 21.14 12.34 19.84" class="color515151 svgShape"></polygon></svg></g></svg>